<svg xmlns="http://www.w3.org/2000/svg" viewBox="0 0 24 24" width="32" height="32">
  <rect width="24" height="24" rx="5" fill="#0E7C6B"/>
  <g fill="none" stroke="#ffffff" stroke-width="1.7" stroke-linecap="round">
    <path d="M4 8c1.3 0 1.3 1.2 2.7 1.2S8 8 9.3 8s1.3 1.2 2.7 1.2S13.3 8 14.7 8s1.3 1.2 2.7 1.2S18.7 8 20 8"/>
    <path d="M4 12c1.3 0 1.3 1.2 2.7 1.2S8 12 9.3 12s1.3 1.2 2.7 1.2S13.3 12 14.7 12s1.3 1.2 2.7 1.2S18.7 12 20 12"/>
    <path d="M4 16c1.3 0 1.3 1.2 2.7 1.2S8 16 9.3 16s1.3 1.2 2.7 1.2S13.3 16 14.7 16s1.3 1.2 2.7 1.2S18.7 16 20 16"/>
  </g>
</svg>
